<?xml version="1.0" standalone="no"?>
<!DOCTYPE svg PUBLIC "-//W3C//DTD SVG 1.1//EN"
  "http://www.w3.org/Graphics/SVG/1.1/DTD/svg11.dtd">
<svg version="1.1" xmlns="http://www.w3.org/2000/svg" xmlns:xlink="http://www.w3.org/1999/xlink" width="1280" height="720" viewBox="-1040.8888888888887 -32 1889.7777777777776 1063" id="ccdiagram"><filter id="grayscale"><feColorMatrix type="matrix" values="0.3333 0.3333 0.3333 0 0 0.3333 0.3333 0.3333 0 0 0.3333 0.3333 0.3333 0 0 0 0 0 1 0"></feColorMatrix></filter><defs><style type="text/css">@import url('https://fonts.googleapis.com/css?family=Open+Sans:400,700|Inconsolata:400');</style></defs><g><rect x="-1040.8888888888887" y="-32" width="1889.7777777777776" height="1063" fill="#ffffff" id="interactionLayer"></rect><g pointer-events="auto"></g><g pointer-events="auto"></g><g pointer-events="auto"></g><g></g><g pointer-events="auto"></g><g></g><g pointer-events="auto"></g><g pointer-events="auto"></g><g pointer-events="none"></g><g pointer-events="auto"><g id="d20a0303-9814-42c5-8c06-a1e5e3794bc8-5a1c0846-e59b-49f8-aa60-fe80fc8495a3"><g cursor="cell"><line x1="224" y1="537" x2="342" y2="468" stroke="red" stroke-width="8" opacity="0"></line><line x1="224" y1="537" x2="342" y2="468" stroke="#000000" stroke-width="2" stroke-linecap="round"></line><polygon points="352 463, 326 468, 340 470, 343 477, 352 463" stroke-linejoin="round" fill="#000000" stroke="#000000" stroke-width="1"></polygon></g></g><g id="bf4dcb3e-8ffb-4fee-9ab4-9275387e686e-0dd1145d-741f-482e-9346-c32b9e5ffa1a"><g cursor="cell"><line x1="-397" y1="470" x2="-298" y2="413" stroke="red" stroke-width="8" opacity="0"></line><line x1="-397" y1="470" x2="-298" y2="413" stroke="#000000" stroke-width="2" stroke-linecap="round"></line><polygon points="-288 407, -314 412, -300 414, -297 422, -288 407" stroke-linejoin="round" fill="#000000" stroke="#000000" stroke-width="1"></polygon></g></g><g id="1f381097-2c89-43e6-abb1-72620f56831d-275cfb50-0ce0-47f5-8fdb-7d8121eaf4b9"><g cursor="cell"><line x1="-380" y1="756" x2="-98" y2="717" stroke="red" stroke-width="8" opacity="0"></line><line x1="-380" y1="756" x2="-98" y2="717" stroke="#000000" stroke-width="2" stroke-linecap="round"></line><polygon points="-85 715, -112 712, -102 718, -106 725, -85 715" stroke-linejoin="round" fill="#000000" stroke="#000000" stroke-width="1"></polygon></g></g><g id="275cfb50-0ce0-47f5-8fdb-7d8121eaf4b9-d20a0303-9814-42c5-8c06-a1e5e3794bc8"><g cursor="cell"><line x1="-23" y1="679" x2="134" y2="588" stroke="red" stroke-width="8" opacity="0"></line><line x1="-23" y1="679" x2="134" y2="588" stroke="#000000" stroke-width="2" stroke-linecap="round"></line><polygon points="144 583, 118 588, 132 590, 135 598, 144 583" stroke-linejoin="round" fill="#000000" stroke="#000000" stroke-width="1"></polygon><text stroke="#ffffff" stroke-width="10" font-family="Open Sans" font-weight="bold" font-size="18pt" fill="#000000" text-anchor="middle" dominant-baseline="middle" transform="translate(60 631) matrix(0.707 0.409 -0.707 0.409 0 0) rotate(270)" xml:space="preserve"><tspan x="8" dy="0">FunctionUrl</tspan></text><text font-family="Open Sans" font-weight="bold" font-size="18pt" fill="#000000" text-anchor="middle" dominant-baseline="middle" transform="translate(60 631) matrix(0.707 0.409 -0.707 0.409 0 0) rotate(270)" xml:space="preserve"><tspan x="8" dy="0">FunctionUrl</tspan></text></g></g><g id="7ec1f6bc-9a66-4808-aaad-771437b20d3a-4e585e67-c245-43f2-8e17-4142c7ef8719"><g cursor="cell"><line x1="-192" y1="370" x2="-26" y2="274" stroke="red" stroke-width="8" opacity="0"></line><line x1="-192" y1="370" x2="-26" y2="274" stroke="#000000" stroke-width="2" stroke-linecap="round"></line><polygon points="-16 268, -42 274, -28 275, -25 283, -16 268" stroke-linejoin="round" fill="#000000" stroke="#000000" stroke-width="1"></polygon></g></g><g id="bf4dcb3e-8ffb-4fee-9ab4-9275387e686e-f8ad0f93-0a02-4ff7-b74f-cdfe7e4fc7b7"><g cursor="cell"><line x1="-397" y1="470" x2="-385" y2="359" stroke="red" stroke-width="8" opacity="0"></line><line x1="-397" y1="470" x2="-385" y2="359" stroke="#000000" stroke-width="2" stroke-linecap="round"></line><polygon points="-384 352, -397 365, -385 362, -374 366, -384 352" stroke-linejoin="round" fill="#000000" stroke="#000000" stroke-width="1"></polygon></g></g><g id="1f381097-2c89-43e6-abb1-72620f56831d-1c890e68-735e-4dcf-94b7-c1ed3e15d4a9"><g cursor="cell"><line x1="-440" y1="745" x2="-432" y2="554" stroke="red" stroke-width="8" opacity="0"></line><line x1="-440" y1="745" x2="-432" y2="554" stroke="#000000" stroke-width="2" stroke-linecap="round"></line><polygon points="-432 546, -444 560, -432 556, -421 560, -432 546" stroke-linejoin="round" fill="#000000" stroke="#000000" stroke-width="1"></polygon></g></g><g id="893bb18d-7c58-4926-9b3e-4cd17c2b327c-275cfb50-0ce0-47f5-8fdb-7d8121eaf4b9"><g cursor="cell"><line x1="17" y1="515" x2="-23" y2="679" stroke="red" stroke-width="8" opacity="0"></line><line x1="17" y1="515" x2="-23" y2="679" stroke="#000000" stroke-width="2" stroke-linecap="round"></line><polygon points="19 507, 4 520, 17 517, 27 522, 19 507" stroke-linejoin="round" fill="#000000" stroke="#000000" stroke-width="1"></polygon></g></g></g><g pointer-events="auto"><g opacity="1"><g id="5a1c0846-e59b-49f8-aa60-fe80fc8495a3" transform="translate(0 0)"><svg x="338" y="321" height="148.981" width="91.956" viewBox="0 0 24.33 39.418"><g transform="translate(240.35 -115.335)"><path d="M-240.082 146.018v4.445l6.973 4.025v-4.445z" fill="#d2d2d4" fill-rule="evenodd" stroke-width=".214"></path><path d="M-233.11 150.043l9.858-.003v4.445l-9.857.003z" fill="#d2d2d4" fill-rule="evenodd" stroke-width=".214"></path><path d="M-223.252 150.04l6.967-4.027v4.445l-6.967 4.028z" fill="#b8b8bb" fill-rule="evenodd" stroke-width=".214"></path><path d="M-223.252 150.04v4.445" fill="none" fill-rule="evenodd" stroke="#83838a" stroke-width=".267"></path><path d="M302.99-2468.894l-36.732 47.87-59.823 7.876-47.87-36.732-7.875-59.823 36.732-47.87 59.822-7.876 47.87 36.732z" fill="#848586" stroke="#83838a" stroke-width="2.151" transform="matrix(.0995 .07485 -.12957 .05747 -573.282 269.258)"></path><path d="M-240.082 139.12v4.445l6.973 4.025v-4.445z" fill="#d2d2d4" fill-rule="evenodd" stroke-width=".214"></path><path d="M-233.11 143.145l9.858-.003v4.445l-9.857.003z" fill="#d2d2d4" fill-rule="evenodd" stroke-width=".214"></path><path d="M-223.252 143.143l6.967-4.028v4.445l-6.967 4.028z" fill="#b8b8bb" fill-rule="evenodd" stroke-width=".214"></path><path d="M302.99-2468.894l-36.732 47.87-59.823 7.876-47.87-36.732-7.875-59.823 36.732-47.87 59.822-7.876 47.87 36.732z" fill="#848586" stroke="#83838a" stroke-width="2.151" transform="matrix(.0995 .07485 -.12957 .05747 -573.282 262.36)"></path><path d="M-240.082 132.222v4.445l6.973 4.025v-4.445z" fill="#d2d2d4" fill-rule="evenodd" stroke-width=".214"></path><path d="M-233.11 136.247l9.858-.003v4.445l-9.857.003z" fill="#d2d2d4" fill-rule="evenodd" stroke-width=".214"></path><path d="M-223.252 136.245l6.967-4.028v4.445l-6.967 4.028z" fill="#b8b8bb" fill-rule="evenodd" stroke-width=".214"></path><path d="M302.99-2468.894l-36.732 47.87-59.823 7.876-47.87-36.732-7.875-59.823 36.732-47.87 59.822-7.876 47.87 36.732z" fill="#848586" stroke="#83838a" stroke-width="2.151" transform="matrix(.0995 .07485 -.12957 .05747 -573.282 255.462)"></path><path d="M-240.082 125.324v4.445l6.973 4.025v-4.445z" fill="#d2d2d4" fill-rule="evenodd" stroke-width=".214"></path><path d="M-233.11 129.349l9.858-.003v4.445l-9.857.003z" fill="#d2d2d4" fill-rule="evenodd" stroke-width=".214"></path><path d="M-223.252 129.347l6.967-4.028v4.445l-6.967 4.028z" fill="#b8b8bb" fill-rule="evenodd" stroke-width=".214"></path><path d="M-223.252 129.347l-9.857.002-6.973-4.025-.003-5.694 6.967-4.028 9.857-.002 6.973 4.025.003 5.694z" fill="#ececed" stroke-width="2.151"></path><path d="M-240.082 125.324l6.964 4.074 9.866-.053 6.967-4.026M-233.118 129.398l.008 4.396M-223.252 129.345v4.445" fill="none" fill-rule="evenodd" stroke="#83838a" stroke-width=".267"></path><path d="M-240.085 119.63l.003 10.139 6.972 4.025 9.857-.003 6.966-4.027-.002-10.14-6.972-4.025-9.857.003z" fill="none" fill-rule="evenodd" stroke="#000000" stroke-width=".529"></path><path d="M-223.252 136.242v4.446M-233.11 136.247v4.445" fill="none" fill-rule="evenodd" stroke="#83838a" stroke-width=".267"></path><path d="M-240.082 132.222v4.445l6.973 4.025 9.857-.003 6.966-4.027.002-4.446-6.968 4.026-9.865.054z" fill="none" fill-rule="evenodd" stroke="#000000" stroke-width=".529"></path><path d="M-233.11 143.145v4.445M-223.252 143.141v4.446" fill="none" fill-rule="evenodd" stroke="#83838a" stroke-width=".267"></path><path d="M-240.082 139.12v4.445l6.973 4.025 9.857-.003 6.966-4.026.002-4.446-6.968 4.028-9.857.003z" fill="none" fill-rule="evenodd" stroke="#000000" stroke-width=".529"></path><path d="M-240.082 146.018v4.445l6.973 4.025 9.857-.003 6.967-4.026v-4.445l-6.967 4.026-9.857.003z" fill="none" fill-rule="evenodd" stroke="#000000" stroke-width=".529"></path><path d="M-233.11 150.043v4.445" fill="none" fill-rule="evenodd" stroke="#83838a" stroke-width=".267"></path><circle cx="-9.268" cy="254.217" fill="#4286c5" r="5.832" stroke-width=".534" transform="scale(1.22475 .7071) rotate(45)"></circle><path d="M-227.78 122.24q.75.433 1.536.73.788.298 1.43.362l-.538.31q-.218.127-.73.046-.513-.08-1.181-.34-.669-.26-1.327-.64-.657-.38-1.108-.766-.45-.386-.59-.681-.138-.296.08-.422l.537-.31q.111.37.626.825.516.454 1.265.887zm-2.428 1.403q.749.432 1.536.73.788.297 1.43.361l-.538.31q-.218.127-.73.046-.513-.08-1.182-.34-.668-.26-1.326-.64-.657-.38-1.108-.766-.45-.386-.59-.681-.139-.296.08-.422l.537-.31q.11.37.626.825.516.454 1.265.887zm1.214-.701q.749.432 1.536.73.788.297 1.43.361l-.538.31q-.218.126-.73.046-.513-.08-1.181-.34-.669-.26-1.327-.64-.657-.38-1.108-.766-.45-.386-.59-.681-.138-.296.08-.422l.537-.31q.111.37.626.825.516.454 1.265.887zm3.642-2.103q.657.38 1.108.766.45.386.59.681.139.296-.08.422l-.404.234q-.218.126-.73.045-.513-.08-1.181-.34-.67-.26-1.327-.64-.657-.38-1.108-.766-.45-.386-.59-.681-.139-.296.08-.422l.404-.234q.218-.126.73-.045.513.08 1.182.34.668.26 1.326.64z" fill="#ffffff" stroke-width=".267"></path></g></svg></g></g><g opacity="1"><g id="d20a0303-9814-42c5-8c06-a1e5e3794bc8" transform="translate(0 0)"><svg x="128" y="478" height="113.438" width="96" viewBox="0 0 25.4 30.014"><g transform="translate(412.599 -86.957)"><path d="M-412.332 102.354v4.786l8.289 4.786h8.29l8.288-4.786v-4.786l-8.289-4.786h-8.29z" fill="#3c3c3c" fill-rule="evenodd"></path><path d="m-395.754 111.926 8.29-4.786v4.786l-8.29 4.785z" fill="#090909" fill-rule="evenodd"></path><path d="M-404.043 111.926h8.29v4.785h-8.29zm-8.29-4.786v4.786l8.29 4.785v-4.785z" fill="#232323" fill-rule="evenodd"></path><path d="m-412.332 107.14 8.289 4.786h8.29l8.288-4.786m-16.578 4.786v4.785m8.29-4.785v4.785" fill="none" stroke="#000" stroke-width=".266"></path><path d="M-412.332 102.354v9.572l8.289 4.785h8.29l8.288-4.785v-9.572l-8.289-4.786h-8.29z" fill="none" stroke="#000000" stroke-width=".532"></path><path d="M-412.333 97.178v4.786l8.29 4.786h8.289l8.29-4.786v-4.786l-8.29-4.786h-8.29z" fill="#3c3c3c" fill-rule="evenodd"></path><path d="m-395.754 106.75 8.29-4.786v4.786l-8.29 4.786z" fill="#090909" fill-rule="evenodd"></path><path d="M-404.044 106.75h8.29v4.786h-8.29z" fill="#232323" fill-rule="evenodd"></path><path d="M-412.333 101.964v4.786l8.29 4.786v-4.786z" fill="#232323" fill-rule="evenodd"></path><path d="m-412.333 101.964 8.29 4.786h8.289l8.29-4.786m-16.58 4.786v4.786m8.29-4.786v4.786" fill="none" stroke="#000" stroke-width=".266"></path><path d="M-412.333 97.178v9.572l8.29 4.786h8.289l8.29-4.786v-9.572l-8.29-4.786h-8.29z" fill="none" stroke="#000000" stroke-width=".532"></path><path d="M-412.333 92.01v4.785l8.29 4.786h8.289l8.29-4.786v-4.786l-8.29-4.786h-8.29z" fill="#3c3c3c" fill-rule="evenodd"></path><path d="m-395.754 101.58 8.29-4.785v4.786l-8.29 4.786z" fill="#090909" fill-rule="evenodd"></path><path d="M-404.044 101.58h8.29v4.787h-8.29z" fill="#232323" fill-rule="evenodd"></path><path d="M-412.333 96.795v4.786l8.29 4.786v-4.786z" fill="#232323" fill-rule="evenodd"></path><path d="m-412.333 96.795 8.29 4.786h8.289l8.29-4.786m-16.58 4.785v4.787m8.29-4.787v4.787" fill="none" stroke="#000" stroke-width=".266"></path><path d="M-412.333 92.01v9.57l8.29 4.787h8.289l8.29-4.786v-9.572l-8.29-4.786h-8.29z" fill="none" stroke="#000000" stroke-width=".532"></path><circle cx="-136.478" cy="325.284" fill="#f4b934" r="5.801" transform="scale(1.22475 .7071) rotate(45)"></circle><g font-family="sans-serif" font-size="3.191" stroke-width=".266" style="line-height: 0%;"><path d="m-127.434 301.586-.302-.818q-.136-.375-.321-.512-.18-.136-.638-.136h-.545v-1.144h1.007q.887 0 1.364.375.482.375.813 1.26l2.23 5.94h-1.744l-1.085-2.862-1.144 2.862h-1.743z" fill="#ffffff" font-family="Droid Serif" font-size="9.971" transform="scale(1.31605 .75985) rotate(45)" style="line-height: 1.25;"></path></g></g></svg></g></g><g opacity="1"><g id="893bb18d-7c58-4926-9b3e-4cd17c2b327c" transform="translate(0 0)"><svg x="-19" y="398" height="115.695" width="100.625" viewBox="0 0 26.624 30.611"><path d="M13.312.306v15l12.99-7.5z" fill="#4286c5" fill-rule="evenodd"></path><path d="m.321 7.806 12.99 7.5v-15z" fill="#26527b" fill-rule="evenodd"></path><path d="M13.312.306v15" fill="none" stroke="#020406" stroke-width=".265"></path><path d="m13.312 15.306 12.99-7.5-6.495 18.75-6.495 3.75z" fill="#26527b" fill-rule="evenodd"></path><path d="m.321 7.806 12.99 7.5v15l-6.494-3.75z" fill="#326ca2" fill-rule="evenodd"></path><path d="m.321 7.806 12.99 7.5 12.991-7.5-12.99 7.5v15" fill="none" stroke="#0e1e2d" stroke-width=".265"></path><path d="m13.312.306-12.99 7.5 6.495 18.75 6.495 3.75 6.495-3.75 6.495-18.75z" fill="none" stroke="#000000" stroke-width=".529"></path></svg></g></g><g opacity="1"><g id="7ec1f6bc-9a66-4808-aaad-771437b20d3a" transform="translate(0 0)"><svg x="-288" y="312" height="113.438" width="96" viewBox="0 0 25.4 30.014"><g transform="translate(412.599 -86.957)"><path d="M-412.332 102.354v4.786l8.289 4.786h8.29l8.288-4.786v-4.786l-8.289-4.786h-8.29z" fill="#3c3c3c" fill-rule="evenodd"></path><path d="m-395.754 111.926 8.29-4.786v4.786l-8.29 4.785z" fill="#090909" fill-rule="evenodd"></path><path d="M-404.043 111.926h8.29v4.785h-8.29zm-8.29-4.786v4.786l8.29 4.785v-4.785z" fill="#232323" fill-rule="evenodd"></path><path d="m-412.332 107.14 8.289 4.786h8.29l8.288-4.786m-16.578 4.786v4.785m8.29-4.785v4.785" fill="none" stroke="#000" stroke-width=".266"></path><path d="M-412.332 102.354v9.572l8.289 4.785h8.29l8.288-4.785v-9.572l-8.289-4.786h-8.29z" fill="none" stroke="#000000" stroke-width=".532"></path><path d="M-412.333 97.178v4.786l8.29 4.786h8.289l8.29-4.786v-4.786l-8.29-4.786h-8.29z" fill="#3c3c3c" fill-rule="evenodd"></path><path d="m-395.754 106.75 8.29-4.786v4.786l-8.29 4.786z" fill="#090909" fill-rule="evenodd"></path><path d="M-404.044 106.75h8.29v4.786h-8.29z" fill="#232323" fill-rule="evenodd"></path><path d="M-412.333 101.964v4.786l8.29 4.786v-4.786z" fill="#232323" fill-rule="evenodd"></path><path d="m-412.333 101.964 8.29 4.786h8.289l8.29-4.786m-16.58 4.786v4.786m8.29-4.786v4.786" fill="none" stroke="#000" stroke-width=".266"></path><path d="M-412.333 97.178v9.572l8.29 4.786h8.289l8.29-4.786v-9.572l-8.29-4.786h-8.29z" fill="none" stroke="#000000" stroke-width=".532"></path><path d="M-412.333 92.01v4.785l8.29 4.786h8.289l8.29-4.786v-4.786l-8.29-4.786h-8.29z" fill="#3c3c3c" fill-rule="evenodd"></path><path d="m-395.754 101.58 8.29-4.785v4.786l-8.29 4.786z" fill="#090909" fill-rule="evenodd"></path><path d="M-404.044 101.58h8.29v4.787h-8.29z" fill="#232323" fill-rule="evenodd"></path><path d="M-412.333 96.795v4.786l8.29 4.786v-4.786z" fill="#232323" fill-rule="evenodd"></path><path d="m-412.333 96.795 8.29 4.786h8.289l8.29-4.786m-16.58 4.785v4.787m8.29-4.787v4.787" fill="none" stroke="#000" stroke-width=".266"></path><path d="M-412.333 92.01v9.57l8.29 4.787h8.289l8.29-4.786v-9.572l-8.29-4.786h-8.29z" fill="none" stroke="#000000" stroke-width=".532"></path><circle cx="-136.478" cy="325.284" fill="#f4b934" r="5.801" transform="scale(1.22475 .7071) rotate(45)"></circle><g font-family="sans-serif" font-size="3.191" stroke-width=".266" style="line-height: 0%;"><path d="m-127.434 301.586-.302-.818q-.136-.375-.321-.512-.18-.136-.638-.136h-.545v-1.144h1.007q.887 0 1.364.375.482.375.813 1.26l2.23 5.94h-1.744l-1.085-2.862-1.144 2.862h-1.743z" fill="#ffffff" font-family="Droid Serif" font-size="9.971" transform="scale(1.31605 .75985) rotate(45)" style="line-height: 1.25;"></path></g></g></svg></g></g><g opacity="1"><g id="275cfb50-0ce0-47f5-8fdb-7d8121eaf4b9" transform="translate(0 0)"><svg x="-112" y="583" height="148.142" width="93" viewBox="0 0 24.606 39.196"><g transform="translate(-90.671 -137.288)"><path d="M91.985 141.821l14.632 8.448 7.316-4.224-14.632-8.447z" fill="#ececed" fill-rule="evenodd" stroke-width=".268"></path><path d="M91.985 165.958l-1.045 1.81v-1.207z" fill="#d2d2d4" fill-rule="evenodd" stroke-width=".268"></path><path d="M91.985 165.958l14.632 8.447-1.046 1.81-14.566-8.56zM106.617 174.405l-1.046 1.81h2.09z" fill="#d2d2d4" fill-rule="evenodd" stroke-width=".268"></path><path d="M91.985 141.821v24.137l14.632 8.447V150.27z" fill="#d2d2d4" fill-rule="evenodd" stroke-width=".268"></path><path d="M106.617 174.405l1.045 1.81 7.316-4.223v-1.207l-1.045-.603z" fill="#b8b8bb" fill-rule="evenodd" stroke-width=".268"></path><path d="M106.617 150.27l7.316-4.225v24.137l-7.316 4.223z" fill="#b8b8bb" fill-rule="evenodd" stroke-width=".268"></path><g fill="none" fill-rule="evenodd" stroke="#83838a"><path d="M113.933 170.182l-7.316 4.223-14.632-8.447-1.045 1.81M91.985 141.821l14.632 8.448 7.316-4.224M106.617 150.27v24.135M105.571 176.216l1.046-1.81 1.045 1.81M113.933 170.182l1.045 1.81" stroke-width=".26818"></path></g><path d="M90.94 167.768v-1.207l1.045-.603V141.82l7.316-4.223 14.632 8.447v24.137l1.045.603v1.207l-7.316 4.224h-2.09z" fill="none" fill-rule="evenodd" stroke="#000000" stroke-width=".529"></path><ellipse cx="141.009" cy="74.394" fill="#4286c5" rx="6.047" ry="4.714" stroke-width=".278" transform="matrix(.19572 .98066 .96381 .26658 0 0)"></ellipse><ellipse cx="141.009" cy="74.394" fill="#ffffff" rx="5.037" ry="3.927" stroke-width=".278" transform="matrix(.19572 .98066 .96381 .26658 0 0)"></ellipse><path d="M99.03 153.239c-3.067 2.89-1.034 7.41.27 9.702" fill="none" fill-rule="evenodd" stroke="#4286c5" stroke-width=".51973284"></path><g transform="translate(374.17 163.896) scale(.26818)"><ellipse cx="272.14" cy="-1124.64" fill="#4286c5" rx="3.335" ry="2.648" transform="matrix(.19572 .98066 .96381 .26658 0 0)"></ellipse><ellipse cx="290.38" cy="-1128.297" fill="#4286c5" rx="3.687" ry="2.835" transform="matrix(.19572 .98066 .96381 .26658 0 0)"></ellipse><ellipse cx="290.282" cy="-1113.221" fill="#4286c5" rx="3.51" ry="2.717" transform="matrix(.19572 .98066 .96381 .26658 0 0)"></ellipse><path d="M-1033.087-41.48c4.26 21.344 17.38 30.943 23.61 33.65M-1039.896-25.075c12.675 15.122 22.864 16.4 30.106 8.948" fill="none" fill-rule="evenodd" stroke="#4286c5" stroke-width="1.938"></path></g></g></svg></g></g><g opacity="1"><g id="1f381097-2c89-43e6-abb1-72620f56831d" transform="translate(0 0)"><svg x="-440" y="691" height="95.068" width="63" viewBox="0 0 16.669 25.153"><path d="M16.668 22.903q0 1.64-.864 2.09-.865.452-2.296-.375L3.161 18.645q-1.432-.828-2.296-2.276Q.001 14.92 0 13.279q0-.724.042-1.39.042-.667.166-1.394.124-.728.313-1.303.19-.574.51-1.038.32-.464.733-.684.415-.219 1.013-.146.598.073 1.32.489.106.061.497.58.39.52.881 1.166.492.645 1.28 1.394.787.749 1.58 1.206.793.458 1.58.619.788.16 1.279.082.491-.078.882-.147.39-.068.497-.007.722.417 1.32 1.036.598.618 1.012 1.315.414.697.734 1.53.32.834.509 1.627.19.793.314 1.665.124.871.165 1.585.042.714.042 1.439zM12.88 8.509q0 2.173-1.331 2.942-1.332.77-3.214-.317T5.121 7.74Q3.789 5.434 3.789 3.26q0-2.173 1.332-2.942 1.332-.769 3.214.318 1.882 1.086 3.214 3.393 1.331 2.307 1.331 4.48z" fill="#000" stroke="#000000" stroke-width=".268"></path></svg></g></g></g><g pointer-events="auto"></g><g pointer-events="auto"><g opacity="1"><g id="bf4dcb3e-8ffb-4fee-9ab4-9275387e686e" transform="translate(0 0)"><svg x="-432" y="490" overflow="visible"><g transform=" "><circle cx="0" cy="0" fill="transparent" r="40"></circle><svg width="100" height="100" x="-50" y="-50" style="fill: rgb(255, 255, 255);"><svg id="Layer_1" data-name="Layer 1" xmlns="http://www.w3.org/2000/svg" width="100" height="100" viewBox="0 0 100 100"><g><path fill="#692f56" d="M37.87 58.58 50 60.06l11.21-9.19L50 39.92l-12.13 1.5v17.16zM71.41 24.92l6.89-1.75 5.07 21.47-5.07 28.31-6.89-1.01V24.92z"></path><path fill="#ad688b" d="m78.3 70.96 5.66 3.06V26l-5.66-2.83v47.79z"></path><path fill="#cfb2c1" d="m71.41 65.11 6.89 1L50 91l-7.57-18.67 28.98-7.22z"></path><path fill="#ad688b" d="m28.59 75.08-6.89 1.75-3.91-48.87 10.8 1.7v45.42z"></path><path fill="#512843" d="m28.59 34.89-6.89-1L50 9l7.57 18.67-28.98 7.22z"></path><path fill="#cfb2c1" d="m57.57 72.33-18.33-4.57-7.32 1.4 18.12 21.06 7.53-17.89z"></path><path fill="#512843" d="m42.43 27.67 7.54-18.65 18.11 21.82-7.32 1.4-18.33-4.57z"></path><path fill="#ad688b" d="M62.13 58.58 50 60.06V39.92l12.13 1.5v17.16zM83.96 74.02 50 91V74.6l30.17-9.05 2.05.61 1.74 7.86z"></path><path fill="#692f56" d="M31.92 69.16 50 74.59v16.39l-18.08-9.04V69.16z"></path><path fill="#ad688b" d="M68.08 30.84 50 25.41V9.02l18.08 9.03v12.79z"></path><path fill="#692f56" d="M16.04 25.98 50 9v16.4L16.04 35.58v-9.6z"></path><path fill="#692f56" d="m21.7 29.62-5.66-3.64V74l5.66 2.83V29.62z"></path></g></svg></svg></g></svg></g></g><g opacity="1"><g id="0ae8ecdb-3973-4f69-9978-e3b745988aad" transform="translate(0 0)"><svg x="32" y="241" overflow="visible"><g transform="scale(2.729575167846423) matrix(0.707 0.409 -0.707 0.409 0 0)"><circle cx="0" cy="0" fill="#000000" r="23"></circle><svg width="27" height="32" x="-13.5" y="-16" style="fill: rgb(255, 255, 255);"><svg xmlns="http://www.w3.org/2000/svg" width="27" height="32" viewBox="0 0 27 32"><path d="M13.714 2.286c7.571 0 13.714 6.143 13.714 13.714 0 6.054-3.929 11.196-9.375 13.018-.696.125-.946-.304-.946-.661 0-.446.018-1.929.018-3.768 0-1.286-.429-2.107-.929-2.536 3.054-.339 6.268-1.5 6.268-6.768 0-1.5-.536-2.714-1.411-3.679.143-.357.607-1.75-.143-3.643-1.143-.357-3.768 1.411-3.768 1.411a12.895 12.895 0 0 0-6.858 0S7.659 7.606 6.516 7.963c-.75 1.893-.286 3.286-.143 3.643-.875.964-1.411 2.179-1.411 3.679 0 5.25 3.196 6.429 6.25 6.768-.393.357-.75.964-.875 1.839-.786.357-2.786.964-3.982-1.143-.75-1.304-2.107-1.411-2.107-1.411-1.339-.018-.089.839-.089.839.893.411 1.518 2 1.518 2 .804 2.446 4.625 1.625 4.625 1.625 0 1.143.018 2.214.018 2.554 0 .357-.25.786-.946.661-5.446-1.821-9.375-6.964-9.375-13.018 0-7.571 6.143-13.714 13.714-13.714zM5.196 21.982c.036-.071-.018-.161-.125-.214-.107-.036-.196-.018-.232.036-.036.071.018.161.125.214.089.054.196.036.232-.036zm.554.607c.071-.054.054-.179-.036-.286-.089-.089-.214-.125-.286-.054-.071.054-.054.179.036.286.089.089.214.125.286.054zm.536.804c.089-.071.089-.214 0-.339-.071-.125-.214-.179-.304-.107-.089.054-.089.196 0 .321s.232.179.304.125zm.75.75c.071-.071.036-.232-.071-.339-.125-.125-.286-.143-.357-.054-.089.071-.054.232.071.339.125.125.286.143.357.054zm1.018.446c.036-.107-.071-.232-.232-.286-.143-.036-.304.018-.339.125s.071.232.232.268c.143.054.304 0 .339-.107zm1.125.09c0-.125-.143-.214-.304-.196-.161 0-.286.089-.286.196 0 .125.125.214.304.196.161 0 .286-.089.286-.196zm1.035-.179c-.018-.107-.161-.179-.321-.161-.161.036-.268.143-.25.268.018.107.161.179.321.143s.268-.143.25-.25z"></path></svg></svg></g></svg></g></g><g opacity="1"><g id="73099b35-4304-4114-b78c-4069c92281a5" transform="translate(0 0)"><svg x="-384" y="315" overflow="visible"><g transform="scale(2.1836601342771385) matrix(0.707 0.409 -0.707 0.409 0 0)"><circle cx="0" cy="0" fill="#000000" r="23"></circle><svg width="27" height="32" x="-13.5" y="-16" style="fill: rgb(255, 255, 255);"><svg xmlns="http://www.w3.org/2000/svg" width="27" height="32" viewBox="0 0 27 32"><path d="M13.714 14.036H26.66c.125.696.214 1.375.214 2.286 0 7.821-5.25 13.393-13.161 13.393-7.589 0-13.714-6.125-13.714-13.714S6.124 2.287 13.713 2.287c3.696 0 6.804 1.357 9.196 3.589l-3.732 3.589c-1.018-.982-2.804-2.125-5.464-2.125-4.679 0-8.5 3.875-8.5 8.661s3.821 8.661 8.5 8.661c5.429 0 7.464-3.893 7.786-5.911h-7.786v-4.714z"></path></svg></svg></g></svg></g></g></g><g pointer-events="auto"><g opacity="1"><g id="f192d9c3-b24a-4402-b009-69b7ffec1994"><svg x="-48" y="731" overflow="visible"><text stroke="#ffffff" stroke-width="4" font-family="Open Sans" y="36.5" font-size="25pt" fill="#000000" font-weight="bold" transform="matrix(0.707 0.409 -0.707 0.409 0 0)" xml:space="preserve"><tspan x="8" dy="0">CloudFrontStack</tspan></text><text font-family="Open Sans" y="36.5" font-size="25pt" fill="#000000" font-weight="bold" transform="matrix(0.707 0.409 -0.707 0.409 0 0)" xml:space="preserve"><tspan x="8" dy="0">CloudFrontStack</tspan></text></svg></g></g><g opacity="1"><g id="1102387c-bc7c-4183-a101-b259a3fe4514"><svg x="-704" y="370" overflow="visible"><text stroke="#ffffff" stroke-width="4" font-family="Open Sans" y="36.5" font-size="25pt" fill="#000000" font-weight="bold" transform="matrix(0.707 0.409 -0.707 0.409 0 0)" xml:space="preserve"><tspan x="8" dy="0">CognitoGoogleStack</tspan><tspan x="8" dy="1.1em">CognitoEmailStack</tspan><tspan x="8" dy="1.1em">CognitoGithubStack</tspan></text><text font-family="Open Sans" y="36.5" font-size="25pt" fill="#000000" font-weight="bold" transform="matrix(0.707 0.409 -0.707 0.409 0 0)" xml:space="preserve"><tspan x="8" dy="0">CognitoGoogleStack</tspan><tspan x="8" dy="1.1em">CognitoEmailStack</tspan><tspan x="8" dy="1.1em">CognitoGithubStack</tspan></text></svg></g></g><g opacity="1"><g id="572187e5-1c4f-4ae3-af81-5ceddc54b4ca"><svg x="176" y="601" overflow="visible"><text stroke="#ffffff" stroke-width="4" font-family="Open Sans" y="36.5" font-size="25pt" fill="#000000" font-weight="bold" transform="matrix(0.707 0.409 -0.707 0.409 0 0)" xml:space="preserve"><tspan x="8" dy="0">ZincApiStack</tspan></text><text font-family="Open Sans" y="36.5" font-size="25pt" fill="#000000" font-weight="bold" transform="matrix(0.707 0.409 -0.707 0.409 0 0)" xml:space="preserve"><tspan x="8" dy="0">ZincApiStack</tspan></text></svg></g></g><g opacity="1"><g id="1128153e-6c73-45d5-91fc-de486a1d142e"><svg x="-32" y="315" overflow="visible"><text stroke="#ffffff" stroke-width="4" font-family="Open Sans" y="36.5" font-size="25pt" fill="#000000" font-weight="bold" transform="matrix(0.707 0.409 -0.707 0.409 0 0)" xml:space="preserve"><tspan x="8" dy="0">ClientBucketStack</tspan></text><text font-family="Open Sans" y="36.5" font-size="25pt" fill="#000000" font-weight="bold" transform="matrix(0.707 0.409 -0.707 0.409 0 0)" xml:space="preserve"><tspan x="8" dy="0">ClientBucketStack</tspan></text></svg></g></g><g opacity="1"><g id="a88faadd-fc96-40e2-9b30-403b7fe3aa3d"><svg x="368" y="472" overflow="visible"><text stroke="#ffffff" stroke-width="4" font-family="Open Sans" y="36.5" font-size="25pt" fill="#000000" font-weight="bold" transform="matrix(0.707 0.409 -0.707 0.409 0 0)" xml:space="preserve"><tspan x="8" dy="0">OneTableStack</tspan></text><text font-family="Open Sans" y="36.5" font-size="25pt" fill="#000000" font-weight="bold" transform="matrix(0.707 0.409 -0.707 0.409 0 0)" xml:space="preserve"><tspan x="8" dy="0">OneTableStack</tspan></text></svg></g></g><g opacity="1"><g id="886e9e6c-44c7-4bc6-9a01-35000741a791"><svg x="-272" y="416" overflow="visible"><text stroke="#ffffff" stroke-width="4" font-family="Open Sans" y="36.5" font-size="25pt" fill="#000000" font-weight="bold" transform="matrix(0.707 0.409 -0.707 0.409 0 0)" xml:space="preserve"><tspan x="8" dy="0">GithubOidcApiStack</tspan></text><text font-family="Open Sans" y="36.5" font-size="25pt" fill="#000000" font-weight="bold" transform="matrix(0.707 0.409 -0.707 0.409 0 0)" xml:space="preserve"><tspan x="8" dy="0">GithubOidcApiStack</tspan></text></svg></g></g><g opacity="1"><g id="e1ffaeb6-5b9b-45f3-8d4a-bde6b280d659"><svg x="48" y="157" overflow="visible"><text stroke="#ffffff" stroke-width="4" font-family="Open Sans" y="36.5" font-size="25pt" fill="#000000" font-weight="bold" transform="matrix(0.707 0.409 -0.707 0.409 0 0)" xml:space="preserve"><tspan x="8" dy="0">Github.com</tspan></text><text font-family="Open Sans" y="36.5" font-size="25pt" fill="#000000" font-weight="bold" transform="matrix(0.707 0.409 -0.707 0.409 0 0)" xml:space="preserve"><tspan x="8" dy="0">Github.com</tspan></text></svg></g></g><g opacity="1"><g id="8929f721-7896-4167-b252-96f07f30cf07"><svg x="-416" y="204" overflow="visible"><text stroke="#ffffff" stroke-width="4" font-family="Open Sans" y="36.5" font-size="25pt" fill="#000000" font-weight="bold" transform="matrix(0.707 0.409 -0.707 0.409 0 0)" xml:space="preserve"><tspan x="8" dy="0">Google.com</tspan></text><text font-family="Open Sans" y="36.5" font-size="25pt" fill="#000000" font-weight="bold" transform="matrix(0.707 0.409 -0.707 0.409 0 0)" xml:space="preserve"><tspan x="8" dy="0">Google.com</tspan></text></svg></g></g></g><g pointer-events="auto"><g></g><g></g><g></g><g></g><g></g><g></g><g></g><g></g><g></g><g></g></g></g></svg>